<svg width="62" height="62" viewBox="0 0 62 62" fill="none" xmlns="http://www.w3.org/2000/svg">
<circle cx="31" cy="31" r="31" fill="#2C2C2C"/>
<path d="M24.0489 20.0495C24.0485 20.7039 23.7394 21.3315 23.1896 21.794C22.6398 22.2565 21.8943 22.5162 21.1171 22.5159C20.3399 22.5156 19.5947 22.2553 19.0455 21.7923C18.4962 21.3292 18.1878 20.7015 18.1882 20.047C18.1886 19.3925 18.4977 18.765 19.0475 18.3025C19.5974 17.8399 20.3429 17.5802 21.12 17.5806C21.8972 17.5809 22.6424 17.8412 23.1917 18.3042C23.741 18.7672 24.0493 19.395 24.0489 20.0495V20.0495ZM24.1368 24.3432H18.2761V39.7908H24.1368V24.3432ZM33.3967 24.3432H27.5653V39.7908H33.3381V31.6845C33.3381 27.1687 40.327 26.7492 40.327 31.6845V39.7908H46.1144V30.0065C46.1144 22.3937 35.7703 22.6775 33.3381 26.416L33.3967 24.3432V24.3432Z" fill="#30CDFF"/>
</svg>
