<svg width="62" height="62" viewBox="0 0 62 62" fill="none" xmlns="http://www.w3.org/2000/svg">
<circle cx="31" cy="31" r="31" fill="#243769"/>
<path d="M22.5002 41.2107C22.0607 40.9177 21.6826 40.5441 21.2402 40.0152C21.0105 39.7341 20.7829 39.4513 20.5574 39.1668C19.879 38.3243 19.4512 37.9361 19.0087 37.7764C18.6428 37.645 18.3442 37.3737 18.1783 37.0222C18.0125 36.6706 17.9931 36.2675 18.1245 35.9017C18.2558 35.5358 18.5271 35.2371 18.8787 35.0713C19.2303 34.9055 19.6333 34.8861 19.9992 35.0174C21.101 35.413 21.8467 36.0943 22.8519 37.3441C22.7141 37.1727 23.35 37.9698 23.4863 38.1339C23.7647 38.4665 23.9698 38.6687 24.131 38.7756C24.4298 38.9763 24.991 39.0628 25.8159 38.9807C25.8496 38.421 25.9536 37.8775 26.1119 37.3764C21.7632 36.3127 19.3017 33.5083 19.3017 28.0051C19.3017 26.1883 19.8439 24.5532 20.8519 23.1818C20.5325 21.8719 20.5808 20.2881 21.2944 18.5049C21.3754 18.3032 21.5002 18.1221 21.6598 17.9746C21.8195 17.8271 22.01 17.717 22.2174 17.6522C22.3361 17.617 22.4035 17.6009 22.5222 17.5833C23.6987 17.4031 25.3602 17.8324 27.5258 19.1892C28.8163 18.8875 30.1374 18.736 31.4627 18.7379C32.7989 18.7379 34.1264 18.8903 35.3952 19.1892C37.5593 17.8222 39.2237 17.3929 40.409 17.5833C40.5336 17.6024 40.6391 17.6273 40.7284 17.6566C40.9318 17.7237 41.1181 17.8345 41.274 17.9813C41.43 18.1282 41.5518 18.3074 41.631 18.5064C42.3445 20.2881 42.3929 21.8719 42.0735 23.1803C43.0859 24.5517 43.6236 26.1766 43.6236 28.0051C43.6236 33.5098 41.1709 36.3053 36.8223 37.3705C37.0054 37.9786 37.1007 38.6584 37.1007 39.3925C37.1008 40.7189 37.0949 42.0454 37.0831 43.3719C37.4121 43.4436 37.7064 43.6266 37.9164 43.8899C38.1263 44.1532 38.2392 44.4808 38.2359 44.8176C38.2327 45.1544 38.1135 45.4797 37.8984 45.7389C37.6834 45.9981 37.3856 46.1753 37.0553 46.2407C35.3864 46.5747 34.1498 45.4612 34.1498 44.0063L34.1527 43.3528L34.1601 42.3199C34.1674 41.2825 34.1703 40.3595 34.1703 39.3925C34.1703 38.3712 33.9022 37.7046 33.5476 37.3998C32.5791 36.5647 33.07 34.975 34.3388 34.8328C38.686 34.3449 40.6933 32.6614 40.6933 28.0051C40.6933 26.6059 40.2361 25.4499 39.3556 24.4828C39.17 24.2795 39.0455 24.0281 38.9963 23.7573C38.9471 23.4865 38.9751 23.2073 39.0772 22.9517C39.3204 22.3452 39.4244 21.5496 39.2178 20.5869L39.2032 20.5913C38.4838 20.795 37.5769 21.236 36.4809 21.9818C36.3042 22.1017 36.1034 22.1816 35.8925 22.2157C35.6817 22.2499 35.466 22.2376 35.2604 22.1796C34.0237 21.8372 32.746 21.6651 31.4627 21.6682C30.1587 21.6682 28.8664 21.8426 27.665 22.1811C27.4601 22.2386 27.2453 22.2508 27.0353 22.2169C26.8253 22.183 26.6252 22.1038 26.4489 21.9847C25.347 21.2419 24.4357 20.8023 23.7119 20.5972C23.5009 21.554 23.605 22.3466 23.8467 22.9517C23.949 23.2072 23.9773 23.4863 23.9283 23.7571C23.8793 24.0279 23.7551 24.2794 23.5698 24.4828C22.6951 25.4411 22.2321 26.6191 22.2321 28.0051C22.2321 32.6527 24.2408 34.3464 28.5646 34.8328C29.8319 34.975 30.3242 36.5573 29.3616 37.394C29.0803 37.6401 28.7331 38.4665 28.7331 39.3925V44.0078C28.7331 45.4524 27.5096 46.5352 25.8613 46.2465C25.5269 46.1878 25.2233 46.0148 25.0023 45.757C24.7813 45.4993 24.6568 45.1728 24.6498 44.8333C24.6429 44.4939 24.7541 44.1625 24.9644 43.896C25.1747 43.6294 25.471 43.4442 25.8027 43.3719V41.9213C24.4694 42.0107 23.3676 41.7924 22.5002 41.2107Z" fill="#30CDFF"/>
</svg>
