<svg width="70" height="52" viewBox="0 0 70 52" fill="none" xmlns="http://www.w3.org/2000/svg">
<g clip-path="url(#clip0_169_38)">
<path d="M60.2331 29.9309C57.7978 29.9434 55.6812 30.5243 53.909 31.3831C53.2585 30.1075 52.6083 28.9711 52.4937 28.1375C52.366 27.1652 52.2131 26.5715 52.366 25.4096C52.5191 24.2478 53.2076 22.5933 53.1948 22.467C53.1822 22.3408 53.0417 21.7472 51.6392 21.7347C50.2367 21.722 49.0254 21.9999 48.8851 22.366C48.7449 22.7322 48.4772 23.5658 48.2986 24.4244C48.0563 25.6875 45.4937 30.1958 44.0275 32.5575C43.5556 31.6358 43.1476 30.8274 43.0582 30.1834C42.9308 29.2111 42.7776 28.6174 42.9308 27.4555C43.0839 26.2936 43.7724 24.6394 43.7596 24.5129C43.7467 24.3867 43.6064 23.793 42.204 23.7806C40.8012 23.7679 39.5899 24.0457 39.4499 24.4119C39.3096 24.7783 39.1565 25.6369 38.8634 26.4705C38.57 27.3041 35.1657 34.8311 34.2732 36.7757C33.9125 37.5628 33.5342 38.3418 33.1384 39.1122C33.1384 39.1122 33.1256 39.1501 33.0873 39.2132C32.963 39.4548 32.8355 39.6947 32.705 39.9331V39.9455C32.5136 40.2868 32.3096 40.6023 32.2076 40.6023C32.1311 40.6023 31.9908 39.6931 32.2331 38.4554C32.743 35.8413 33.9544 31.7748 33.9418 31.6358C33.9418 31.56 34.1712 30.8529 33.1513 30.4864C32.1565 30.1203 31.7997 30.7264 31.7103 30.7264C31.6211 30.7264 31.5571 30.9411 31.5571 30.9411C31.5571 30.9411 32.6667 26.3695 29.4407 26.3695C27.4263 26.3695 24.6465 28.5543 23.2695 30.5243C21.7041 31.3681 20.1401 32.2143 18.5773 33.0629C17.8254 33.4797 17.0474 33.8965 16.3206 34.2878C16.2695 34.2375 16.2187 34.1741 16.1675 34.1237C12.2658 29.994 5.04928 27.0766 5.35525 21.5327C5.4701 19.512 6.17119 14.2077 19.215 7.76702C29.9507 2.52585 38.4937 3.97806 39.9727 7.19854C42.0891 11.7957 35.3954 20.3329 24.3023 21.5703C20.0692 22.0378 17.8505 20.4212 17.2897 19.815C16.7032 19.1835 16.6138 19.1455 16.3969 19.272C16.0401 19.4616 16.2695 20.0298 16.3969 20.3581C16.7286 21.2166 18.0928 22.7322 20.4006 23.4775C22.4407 24.134 27.4006 24.5005 33.4061 22.2019C40.1256 19.6255 45.3788 12.4649 43.8361 6.46621C42.2931 0.378958 32.0928 -1.629 22.4407 1.76806C16.7032 3.78902 10.4808 6.97131 6.00549 11.1137C0.688495 16.0388 -0.153145 20.3201 0.191113 22.1136C1.42814 28.4785 10.2897 32.6209 13.8343 35.6897C13.6557 35.7907 13.4897 35.8792 13.3497 35.9551C11.5773 36.8264 4.81959 40.3244 3.13658 44.0248C1.22416 48.2176 3.44283 51.2236 4.909 51.6274C9.46092 52.8778 14.1403 50.6299 16.6521 46.9168C19.1638 43.2039 18.8579 38.3796 17.6977 36.1696C17.6848 36.1444 17.6722 36.1189 17.6465 36.0938C18.1056 35.8286 18.5773 35.5507 19.0364 35.2856C19.8802 34.7915 20.7347 34.3157 21.5994 33.8583C21.1657 35.0329 20.8469 36.4347 20.694 38.4554C20.5026 40.8298 21.4842 43.9111 22.7721 45.1233C23.3461 45.6542 24.0217 45.6666 24.4554 45.6666C25.9599 45.6666 26.6358 44.4289 27.388 42.964C28.306 41.1708 29.1347 39.087 29.1347 39.087C29.1347 39.087 28.102 44.7195 30.9072 44.7195C31.9271 44.7195 32.9599 43.406 33.419 42.7367V42.7492C33.419 42.7492 33.4444 42.7113 33.4955 42.623C33.5975 42.4589 33.6612 42.3576 33.6612 42.3576V42.3327C34.0692 41.6252 34.9874 40.0214 36.3516 37.3566C38.1111 33.9217 39.807 29.6279 39.807 29.6279C39.807 29.6279 39.9601 30.676 40.4827 32.4188C40.7889 33.4417 41.426 34.5657 41.9363 35.6517C41.5283 36.2202 41.2732 36.5358 41.2732 36.5358L41.286 36.5485C40.9544 36.9777 40.5975 37.4449 40.2021 37.8999C38.8122 39.5415 37.1549 41.4235 36.9253 41.9662C36.6573 42.6103 36.7213 43.0777 37.2315 43.4566C37.6012 43.7345 38.264 43.7721 38.9399 43.7345C40.1895 43.6459 41.0692 43.3429 41.5026 43.1536C42.1785 42.9136 42.969 42.5472 43.7084 42.0041C45.0729 41.0064 45.9014 39.5794 45.8251 37.6979C45.7868 36.6622 45.4426 35.6266 45.0217 34.654C45.1494 34.4774 45.264 34.3006 45.3917 34.1237C47.5464 31.0043 49.2168 27.5817 49.2168 27.5817C49.2168 27.5817 49.3699 28.6299 49.8925 30.3729C50.1476 31.2569 50.6704 32.2168 51.1292 33.1511C49.102 34.7805 47.8524 36.6747 47.4061 37.9124C46.603 40.211 47.2276 41.2464 48.4135 41.4863C48.9488 41.6001 49.7139 41.3474 50.275 41.1074C50.989 40.8802 51.8306 40.4888 52.634 39.9076C53.9984 38.9101 55.3115 37.5208 55.2349 35.6393C55.1966 34.7805 54.9672 33.9341 54.6484 33.1132C56.3697 32.4064 58.5883 32.0147 61.4187 32.343C67.4882 33.0501 68.6867 36.8009 68.457 38.3799C68.2276 39.9583 66.9525 40.8171 66.532 41.0822C66.1109 41.3476 65.9709 41.4359 66.0092 41.6252C66.06 41.9031 66.264 41.8907 66.6211 41.84C67.1185 41.7517 69.8088 40.5644 69.9234 37.6597C70.1148 33.9469 66.5446 29.893 60.2331 29.9309ZM13.4135 45.5656C11.3988 47.7377 8.59385 48.5586 7.38252 47.8642C6.08205 47.1188 6.59201 43.9111 9.06553 41.6128C10.57 40.211 12.5081 38.9099 13.796 38.1144C14.0891 37.9376 14.5228 37.6852 15.0456 37.3694C15.1347 37.3187 15.1859 37.2935 15.1859 37.2935L15.4919 37.104C16.3969 40.3875 15.5301 43.2798 13.4135 45.5656ZM28.0765 35.6897C27.3752 37.3821 25.909 41.7138 25.0165 41.4739C24.2514 41.2718 23.7795 37.9882 24.8634 34.7426C25.4116 33.1132 26.5718 31.1684 27.2478 30.4109C28.3442 29.1983 29.5556 28.794 29.8487 29.2869C30.2187 29.9309 28.5099 34.6288 28.0765 35.6897ZM40.1767 41.4232C39.8833 41.5749 39.603 41.6759 39.4753 41.6001C39.3862 41.5494 39.603 41.3474 39.603 41.3474C39.603 41.3474 41.1203 39.731 41.7194 38.9984C42.064 38.5692 42.4717 38.0641 42.9053 37.4956V37.6597C42.9053 39.5921 41.0181 40.8929 40.1764 41.4232H40.1767ZM49.5099 39.3142C49.2931 39.1626 49.3314 38.6575 50.0582 37.0788C50.3387 36.4599 51.0015 35.4245 52.1366 34.4268C52.264 34.8309 52.3534 35.2225 52.3406 35.5886C52.3277 38.0261 50.5684 38.9353 49.5099 39.3142Z" fill="#CD6799"/>
</g>
<defs>
<clipPath id="clip0_169_38">
<rect width="70" height="52" fill="white"/>
</clipPath>
</defs>
</svg>
