<svg width="61" height="55" viewBox="0 0 61 55" fill="none" xmlns="http://www.w3.org/2000/svg">
<path d="M50.1542 17.8084C49.505 17.5829 48.8503 17.374 48.1907 17.1819C48.3015 16.7236 48.4035 16.2708 48.494 15.826C49.9804 8.52134 49.0087 2.63658 45.6897 0.699037C42.5075 -1.15842 37.3032 0.778401 32.0472 5.40926C31.5292 5.86646 31.0226 6.33685 30.5281 6.81996C30.1971 6.49871 29.8601 6.18369 29.5176 5.87507C24.009 0.923621 18.4875 -1.16324 15.1721 0.779848C11.9927 2.64309 11.0512 8.17518 12.3894 15.0979C12.5226 15.7836 12.6729 16.4657 12.8403 17.1436C12.0587 17.3684 11.3045 17.6077 10.5828 17.8624C4.12441 20.142 0 23.7144 0 27.4199C0 31.247 4.42774 35.0856 11.1544 37.4132C11.6998 37.6012 12.2497 37.7753 12.8036 37.9355C12.6237 38.6656 12.464 39.4007 12.3246 40.1398C11.0489 46.9425 12.0451 52.3438 15.2159 54.1952C18.4909 56.1072 23.9875 54.1422 29.3396 49.4056C29.7736 49.0206 30.198 48.6246 30.6125 48.2181C31.148 48.7412 31.6979 49.2491 32.2614 49.7412C37.4459 54.2575 42.5661 56.0811 45.7338 54.2247C49.0056 52.3071 50.0691 46.5046 48.6885 39.4451C48.5797 38.892 48.4578 38.3417 48.3227 37.7946C48.7087 37.6788 49.0876 37.5597 49.4569 37.4357C56.45 35.0902 61 31.2981 61 27.4199C61 23.7009 56.7424 20.1044 50.1542 17.8084ZM48.6375 34.9317C48.3039 35.0434 47.9617 35.1512 47.6129 35.2562C46.8409 32.7819 45.7991 30.1511 44.524 27.4327C45.7407 24.7791 46.7424 22.1818 47.4928 19.7237C48.1168 19.9066 48.7223 20.0993 49.3061 20.3027C54.951 22.2701 58.3942 25.1786 58.3942 27.4199C58.3942 29.8071 54.6755 32.9061 48.6375 34.9317ZM46.1322 39.9575C46.7427 43.0789 46.8297 45.9013 46.4253 48.1078C46.0621 50.0905 45.3316 51.4122 44.428 51.9417C42.5058 53.0682 38.3947 51.604 33.961 47.7414C33.4369 47.2839 32.9254 46.8117 32.4272 46.3254C34.1462 44.4223 35.8639 42.21 37.5405 39.7529C40.4895 39.488 43.2755 39.0548 45.8019 38.4635C45.9237 38.9588 46.0338 39.4569 46.1322 39.9575ZM20.7962 51.747C18.9181 52.4183 17.4222 52.4376 16.5179 51.9098C14.5938 50.7864 13.7939 46.4494 14.885 40.6319C15.0147 39.9445 15.1632 39.2608 15.3303 38.5817C17.8289 39.1414 20.5946 39.5438 23.5505 39.7864C25.2385 42.1908 27.0058 44.4006 28.787 46.3358C28.4085 46.7066 28.021 47.0679 27.6249 47.4194C25.2581 49.5137 22.8864 50.9997 20.7962 51.747ZM11.9975 34.917C9.023 33.8877 6.56656 32.5501 4.88286 31.0904C3.36977 29.7788 2.60608 28.4764 2.60608 27.4199C2.60608 25.1711 5.91748 22.3029 11.4406 20.3536C12.1109 20.1172 12.8124 19.894 13.5403 19.6847C14.3038 22.1982 15.305 24.8264 16.5134 27.484C15.2893 30.181 14.2738 32.8511 13.5029 35.3944C12.9973 35.2478 12.4953 35.0886 11.9975 34.917ZM14.9469 14.5911C13.8005 8.66005 14.5618 4.18599 16.4779 3.06307C18.5185 1.86706 23.0311 3.5723 27.7874 7.84783C28.0976 8.12726 28.4027 8.41236 28.7026 8.70298C26.9303 10.6297 25.1792 12.8232 23.5062 15.2132C20.6373 15.4825 17.8911 15.9147 15.3663 16.4939C15.2107 15.8634 15.0709 15.229 14.9469 14.5914V14.5911ZM41.2596 21.1689C40.6632 20.1261 40.0447 19.0964 39.4046 18.0805C41.3508 18.3297 43.2156 18.6604 44.9668 19.0647C44.4411 20.7707 43.7859 22.5541 43.0145 24.3826C42.4507 23.2996 41.8656 22.2282 41.2596 21.1689ZM30.5293 10.5884C31.7312 11.9067 32.935 13.3785 34.119 14.9754C31.7171 14.8606 29.3113 14.8601 26.9093 14.9739C28.0946 13.3917 29.3086 11.9219 30.5293 10.5884ZM19.7302 21.187C19.1317 22.2378 18.5575 23.3025 18.0081 24.3804C17.2494 22.5584 16.6001 20.7668 16.0699 19.0367C17.8103 18.6425 19.6663 18.3203 21.6002 18.0757C20.9529 19.0977 20.3294 20.1351 19.7302 21.1868V21.187ZM21.6557 36.9518C19.6577 36.726 17.7739 36.4203 16.0339 36.0368C16.5725 34.2758 17.2361 32.4461 18.0112 30.585C18.5628 31.6637 19.1393 32.7291 19.7404 33.7803C20.3585 34.861 20.9985 35.9195 21.6557 36.9518ZM30.6013 44.4371C29.366 43.0881 28.1341 41.5956 26.931 39.9905C28.0991 40.0368 29.2898 40.0605 30.5 40.0605C31.7434 40.0605 32.9724 40.0322 34.1822 39.9777C32.9943 41.6118 31.7951 43.1065 30.6013 44.4371ZM43.0391 30.49C43.8545 32.3716 44.5417 34.1916 45.0873 35.9224C43.3188 36.3311 41.4092 36.6601 39.3972 36.9045C40.0419 35.8697 40.6663 34.8221 41.2698 33.7622C41.8835 32.6849 42.4734 31.5939 43.0391 30.49ZM39.0126 32.4442C38.0886 34.0692 37.1126 35.6633 36.0863 37.2241C34.2271 37.3574 32.3638 37.4236 30.5 37.4226C28.6016 37.4226 26.7552 37.3628 24.9771 37.2461C23.924 35.6889 22.9294 34.0919 21.9955 32.4586H21.9957C21.0663 30.834 20.198 29.1742 19.393 27.4828C20.196 25.7911 21.0616 24.1305 21.9879 22.5046L21.9876 22.5048C22.9136 20.8785 23.9002 19.2884 24.9454 17.7379C26.7595 17.599 28.6197 17.5266 30.4998 17.5266H30.5C32.3886 17.5266 34.2513 17.5997 36.0648 17.7396C37.0995 19.2878 38.0798 20.8724 39.004 22.4906C39.9334 24.1129 40.8104 25.7654 41.6337 27.4454C40.8189 29.1427 39.9446 30.81 39.0126 32.4442ZM44.3882 2.98443C46.4308 4.17706 47.2252 8.98643 45.9418 15.2933C45.8598 15.6957 45.7679 16.1055 45.6678 16.5212C43.1368 15.9297 40.3887 15.4899 37.5114 15.2166C35.8354 12.8002 34.0985 10.6034 32.355 8.70154C32.812 8.25563 33.2798 7.82129 33.758 7.39891C38.2615 3.43143 42.4705 1.86489 44.3882 2.98443ZM30.5 21.9054C33.5083 21.9054 35.9471 24.3744 35.9471 27.4199C35.9471 30.4654 33.5083 32.9343 30.5 32.9343C27.4917 32.9343 25.0529 30.4654 25.0529 27.4199C25.0529 24.3744 27.4917 21.9054 30.5 21.9054Z" fill="#00D8FF"/>
</svg>
