<svg width="55" height="55" viewBox="0 0 55 55" fill="none" xmlns="http://www.w3.org/2000/svg">
<path d="M10.1441 46.7517L6.28375 3.4375H48.7163L44.8508 46.7448L27.4742 51.5625L10.1441 46.7517Z" fill="#1572B6"/>
<path d="M27.5 47.8808L41.5422 43.9879L44.8456 6.97974H27.5V47.8808Z" fill="#33A9DC"/>
<path d="M27.5 22.6719H34.5297L35.0144 17.2321H27.5V11.9194H40.8203L40.6931 13.3443L39.3886 27.9846H27.5V22.6719Z" fill="white"/>
<path d="M27.5326 36.4684L27.5086 36.4753L21.5926 34.8769L21.2145 30.6401H15.8812L16.6254 38.9812L27.5069 42.0028L27.5326 41.9959V36.4684Z" fill="#EBEBEB"/>
<path d="M34.0776 27.7595L33.4383 34.8734L27.5137 36.4719V41.9994L38.4037 38.9812L38.4845 38.0841L39.4075 27.7595H34.0776Z" fill="white"/>
<path d="M27.5189 11.9194V17.2321H14.6867L14.5802 16.0376L14.3378 13.3443L14.2106 11.9194H27.5189ZM27.5 22.6719V27.9846H21.658L21.5514 26.7901L21.3108 24.0968L21.1836 22.6719H27.5Z" fill="#EBEBEB"/>
</svg>
